<?xml version="1.0" encoding="iso-8859-1"?>
<!-- Uploaded to: SVG Repo, www.svgrepo.com, Generator: SVG Repo Mixer Tools -->
<!DOCTYPE svg PUBLIC "-//W3C//DTD SVG 1.1//EN" "http://www.w3.org/Graphics/SVG/1.1/DTD/svg11.dtd">
<svg version="1.1" id="Capa_1" xmlns="http://www.w3.org/2000/svg" xmlns:xlink="http://www.w3.org/1999/xlink" 
	 viewBox="0 0 60 60" xml:space="preserve">
<path style="fill:none;stroke:#839594;stroke-width:2;stroke-linecap:round;stroke-miterlimit:10;" d="M9,15.921
	c0-4.287,2.99-7.869,7-8.778"/>
<polygon style="fill:#7383BF;" points="15.821,3.079 14.157,4.743 17.128,11.674 22.751,6.048 "/>
<rect x="2" y="20.921" style="fill:#7D5C3E;" width="16" height="8"/>
<rect x="42" y="20.921" style="fill:#7D5C3E;" width="16" height="8"/>
<rect x="2" y="28.921" style="fill:#9B775A;" width="16" height="8"/>
<rect x="42" y="28.921" style="fill:#9B775A;" width="16" height="8"/>
<rect x="18" y="24.921" style="fill:#553323;" width="24" height="7"/>
<rect x="18" y="21.921" style="fill:#3D251B;" width="24" height="3"/>
<path style="fill:#FBCE9D;" d="M12,25.921H8c-0.553,0-1-0.447-1-1s0.447-1,1-1h4c0.553,0,1,0.447,1,1S12.553,25.921,12,25.921z"/>
<path style="fill:#FBCE9D;" d="M12,33.921H8c-0.553,0-1-0.447-1-1s0.447-1,1-1h4c0.553,0,1,0.447,1,1S12.553,33.921,12,33.921z"/>
<path style="fill:#FBCE9D;" d="M52,25.921h-4c-0.553,0-1-0.447-1-1s0.447-1,1-1h4c0.553,0,1,0.447,1,1S52.553,25.921,52,25.921z"/>
<path style="fill:#FBCE9D;" d="M52,33.921h-4c-0.553,0-1-0.447-1-1s0.447-1,1-1h4c0.553,0,1,0.447,1,1S52.553,33.921,52,33.921z"/>
<path style="fill:#AFB6BB;" d="M13,19.921H5v0c0-2.209,1.791-4,4-4h0C11.209,15.921,13,17.712,13,19.921L13,19.921z"/>
<rect x="54" y="10.921" style="fill:#EBBA16;" width="3" height="9"/>
<rect x="51" y="10.921" style="fill:#ED8A19;" width="3" height="9"/>
<polygon style="fill:#B02721;" points="48,19.921 45,19.921 48,11.921 51,11.921 "/>
<polygon style="fill:#7D5C3E;" points="8.513,36.921 4.513,36.921 1,56.921 3.513,56.921 "/>
<polygon style="fill:#7D5C3E;" points="51.487,36.921 55.487,36.921 59,56.921 56.487,56.921 "/>
<path style="fill:#553323;" d="M59,21.921H1c-0.553,0-1-0.447-1-1s0.447-1,1-1h58c0.553,0,1,0.447,1,1S59.553,21.921,59,21.921z"/>
</svg>