<?xml version="1.0" encoding="utf-8"?>
<!-- Generator: Adobe Illustrator 27.5.0, SVG Export Plug-In . SVG Version: 6.00 Build 0)  -->
<svg version="1.1" xmlns="http://www.w3.org/2000/svg" xmlns:xlink="http://www.w3.org/1999/xlink" x="0px" y="0px"
	 viewBox="0 0 500 500" style="enable-background:new 0 0 500 500;" xml:space="preserve">
<g id="background">
	<g>
		<rect style="fill:#B1DCF2;" width="500" height="500"/>
	</g>
	<g>
		<circle style="opacity:0.2;fill:#F2F2F2;" cx="344.609" cy="95.78" r="67.286"/>
		<circle style="opacity:0.2;fill:#F2F2F2;" cx="344.61" cy="95.78" r="42.545"/>
		<circle style="opacity:0.2;fill:#F2F2F2;" cx="344.61" cy="95.78" r="28.69"/>
		
			<ellipse transform="matrix(0.7071 -0.7071 0.7071 0.7071 33.2075 271.7289)" style="fill:#F2F2F2;" cx="344.61" cy="95.779" rx="19.085" ry="19.085"/>
	</g>
	<path style="fill:#8FC9EA;" d="M0,210.233v-78.891c4.89,1.631,10.459,1.794,14.795,4.607c2.492,1.616,3.872,4.418,6.25,6.166
		c2.263,1.663,5.035,1.982,7.729,2.423c2.575,0.421,5.41,1.091,7.612,2.57c2.957,1.986,3.949,4.845,4.676,8.149
		c0.854,3.88,3.026,5.637,6.989,6.062c4.049,0.435,8.576-0.464,12.179-2.355c4.619-2.423,5.385-8.155,9.738-10.755
		c2.556-1.527,5.748-1.758,8.639-2.056c2.926-0.302,5.789-0.508,8.735-0.47c5.368,0.069,11.011,0.614,16.257-0.824
		c3.758-1.03,5.953-3.344,8.07-6.488c2.271-3.372,5.102-8.16,9.687-4.885c2.134,1.525,2.916,4.257,4.336,6.345
		c1.209,1.777,2.665,2.747,4.659,3.52c5.721,2.218,11.929,1.998,16.833,6.177c2.763,2.354,5.806,6.176,9.534,6.975
		c3.166,0.678,3.965-2.052,4.533-4.54c0.56-2.449,1.831-4.672,4.638-3.208c1.734,0.904,3.333,2.129,4.903,3.287
		c1.379,1.017,2.79,2.036,4.081,3.165c2.325,2.032,3.476,4.741,4.725,7.483c1.463,3.211,3.758,7.62,7.728,8.119
		c2.788,0.351,5.262-1.577,7.129-3.412c2.856-2.808,5.101-6.192,7.475-9.397c1.176-1.587,2.365-3.213,3.782-4.598
		c1.866-1.825,4.082-3.277,6.036-5.007c2.154-1.908,3.808-4.232,5.866-6.215c1.401-1.35,2.856-1.607,4.706-1.982
		c5.35-1.085,10.605-2.741,15.38-5.422c4.717-2.648,9.148-7.819,14.709-8.523c4.134-0.524,8.433,2.021,12.382,2.917
		c5.92,1.344,11.75-1.755,17.636,0.379c5.179,1.878,8.99,6.717,13.421,9.835c2.652,1.866,5.398,3.611,7.842,5.755
		c2.252,1.975,4.101,4.313,6.041,6.581c2.757,3.222,6.057,6.995,10.55,7.498c5.079,0.568,10.368-1.72,15.352-2.427
		c7.131-1.011,14.245-2.187,21.2-4.09c10.544-2.885,18.158-11.955,28.701-14.633c2.771-0.704,4.974-0.41,7.637,0.497
		c1.747,0.595,3.478,0.653,5.091-0.413c1.484-0.981,1.895-2.762,3.138-3.948c1.979-1.887,4.55-1.062,6.793-0.267
		c2.738,0.97,6.519,3.073,9.485,1.867c0.556-0.226,1.021-0.559,1.421-1.005c0.429-0.478,0.591-1.564,1.016-1.931
		c1.848-1.595,6.648,3.072,7.967,4.293c4.056,3.752,8.338,6.951,13.163,9.679c5.141,2.908,10.513,4.311,16.101,6.09
		c6.533,2.081,12.352,5.122,18.33,8.412c5.521,3.038,11.253,5.697,17.099,8.046c2.386,0.959,4.794,1.861,7.222,2.707v38.14H0z"/>
	<path style="fill:#6EB7E3;" d="M482.536,166.789c-2.941,0.945-4.57,2.584-7.378,3.606c-2.672,0.973-5.944,1.159-9.124,1.417
		c-3.04,0.247-6.386,0.638-8.985,1.503c-3.49,1.161-4.661,2.834-5.519,4.766c-1.008,2.269-3.572,3.296-8.25,3.545
		c-4.779,0.254-10.123-0.271-14.376-1.377c-5.452-1.417-6.356-4.769-11.495-6.29c-3.017-0.893-6.785-1.028-10.197-1.202
		c-3.454-0.176-6.833-0.297-10.311-0.275c-6.337,0.04-12.997,0.359-19.19-0.482c-4.436-0.602-7.026-1.956-9.525-3.794
		c-2.68-1.972-6.023-4.772-11.434-2.857c-2.519,0.892-3.442,2.49-5.118,3.711c-1.427,1.039-3.146,1.606-5.5,2.059
		c-6.753,1.297-14.081,1.168-19.869,3.612c-3.261,1.377-6.854,3.612-11.253,4.079c-3.738,0.397-4.68-1.2-5.351-2.655
		c-0.661-1.433-2.162-2.732-5.475-1.876c-2.047,0.529-3.934,1.245-5.788,1.923c-1.627,0.595-3.293,1.191-4.817,1.851
		c-2.745,1.188-4.103,2.773-5.578,4.376c-1.727,1.878-4.436,4.456-9.122,4.748c-3.291,0.205-6.211-0.922-8.415-1.996
		c-3.372-1.642-6.021-3.621-8.824-5.495c-1.388-0.928-2.792-1.879-4.465-2.689c-2.203-1.067-4.818-1.916-7.125-2.928
		c-2.543-1.116-4.494-2.475-6.924-3.635c-1.654-0.79-3.371-0.94-5.555-1.159c-6.315-0.635-12.518-1.603-18.154-3.171
		c-5.568-1.549-10.798-4.573-17.362-4.985c-4.88-0.306-9.954,1.182-14.616,1.706c-6.988,0.786-13.87-1.026-20.817,0.221
		c-6.114,1.098-10.611,3.928-15.842,5.752c-3.131,1.091-6.372,2.112-9.257,3.366c-2.658,1.155-4.841,2.522-7.131,3.849
		c-3.254,1.885-7.149,4.091-12.453,4.385c-5.995,0.332-12.238-1.006-18.121-1.419c-8.418-0.591-16.814-1.279-25.024-2.392
		c-12.447-1.687-21.433-6.991-33.879-8.558c-3.271-0.412-5.871-0.24-9.015,0.291c-2.062,0.348-4.106,0.382-6.009-0.242
		c-1.751-0.574-2.237-1.615-3.705-2.309c-2.336-1.103-5.371-0.621-8.018-0.156c-3.232,0.568-7.695,1.797-11.196,1.092
		c-0.656-0.132-1.205-0.327-1.677-0.588c-0.506-0.28-0.697-0.915-1.199-1.129c-0.93-0.397-2.493-0.128-4.1,0.365v44.881h500v-46.137
		C494.227,165.049,487.654,165.145,482.536,166.789z"/>
	<g style="opacity:0.2;">
		<path style="fill:#6EB8E3;" d="M497.503,251.544c-8.78,34.485-25.856,64.791-51.228,90.918
			c-23.332,27.965-93.296,87.099-182.606,87.099c-46.432,2.277-90.489-6.9-132.171-27.531l-58.54-40.004
			C39.185,331.427,14.87,294.747,0,251.996V500h500V245.686C499.2,247.645,498.368,249.598,497.503,251.544z"/>
	</g>
	<g style="opacity:0.2;">
		<path style="fill:#6EB8E3;" d="M396.592,439.091c-39.334,22.691-82.177,34.396-128.529,35.113
			c-61.183,3-119.236-9.092-174.16-36.277c-25.713-17.571-51.425-35.142-77.137-52.712C10.965,379.96,5.377,374.568,0,369.04V500
			h500V369.372C470.984,401.095,436.515,424.336,396.592,439.091z"/>
	</g>
	<g>
		<g style="opacity:0.2;">
			<path style="fill:#6EB8E3;" d="M30.715,446.508C20.476,439.512,10.238,432.515,0,425.519V500h242.368
				C168.604,497.66,98.052,479.837,30.715,446.508z"/>
		</g>
		<g style="opacity:0.2;">
			<path style="fill:#6EB8E3;" d="M473.882,448.211c-57.588,33.222-120.315,50.359-188.18,51.41
				c-3.215,0.158-6.422,0.279-9.625,0.379H500v-62.523C491.476,441.339,482.775,444.924,473.882,448.211z"/>
		</g>
	</g>
</g>
<g id="objects">
	<g>
		<g>
			<polyline style="fill:#E6E6E6;" points="59.197,210.107 55.184,254.497 70.613,299.357 90.279,310.319 90.279,349.298 
				110.625,382.999 116.929,419.135 161.983,464.611 179.835,435.376 179.835,407.767 222.483,383.405 229.37,354.171 
				248.454,351.328 255.762,312.35 281.806,285.652 290.796,242.86 290.796,210.107 			"/>
			<polygon style="fill:#F2F2F2;" points="59.197,210.107 66.93,187.808 81.856,168.206 94.803,185.47 112.067,135.297 
				118.002,145.188 124.835,139.074 132.028,149.684 153.428,85.484 176.447,64.804 185.438,124.687 207.377,104.726 
				222.483,114.976 229.317,174.86 246.58,159.754 260.068,164.969 276.545,186.252 281.084,210.107 			"/>
			<polygon style="fill:#6EB8E3;" points="81.856,168.206 98.702,174.141 94.803,185.47 			"/>
			<polygon style="fill:#6EB8E3;" points="112.067,135.297 121.79,141.798 118.002,145.188 			"/>
			<polygon style="fill:#6EB8E3;" points="124.835,139.074 133.527,145.188 132.028,149.684 			"/>
			<polygon style="fill:#6EB8E3;" points="176.447,64.804 202.869,108.828 185.438,124.687 			"/>
			<polygon style="fill:#6EB8E3;" points="222.483,114.976 240.225,165.315 229.317,174.86 			"/>
			<polygon style="fill:#6EB8E3;" points="260.068,164.969 281.084,185.47 290.796,210.107 281.084,210.107 276.545,186.252 			"/>
			<polygon style="opacity:0.5;fill:#6EB8E3;" points="110.625,181.015 115.431,182.817 124.835,169.402 116.929,187.538 			"/>
			<polygon style="fill:#6EB8E3;" points="185.309,129.719 167.69,159.391 154.875,155.013 148.868,162.628 138.657,162.628 
				157.278,171.259 159.681,166.626 173.897,176.838 			"/>
			<polygon style="fill:#6EB8E3;" points="216.377,196.17 222.483,210.107 211.793,210.107 			"/>
			<polygon style="opacity:0.5;fill:#6EB8E3;" points="135.157,178.47 127.377,208.094 144.433,189.377 			"/>
			<polygon style="fill:#6EB8E3;" points="144.433,189.377 138,205.251 139.795,210.107 145.78,210.107 			"/>
			<polygon style="fill:#5BA1C9;" points="144.789,210.107 148.679,275.613 136.426,210.107 			"/>
			<polygon style="fill:#5BA1C9;" points="281.084,210.107 273.673,249.76 281.806,285.652 290.796,242.86 290.796,210.107 			"/>
			<polygon style="fill:#5BA1C9;" points="208.351,210.107 197.994,246.544 200.111,274.809 201.462,247.028 214.574,211.591 
				205.354,242.86 206.227,309.507 214.753,241.536 222.483,210.107 			"/>
			<polygon style="fill:#5BA1C9;" points="179.835,407.767 217.138,376.557 229.37,354.171 222.483,383.405 			"/>
			<polygon style="fill:#5BA1C9;" points="179.835,435.376 165.633,424.793 161.983,464.611 			"/>
			<polygon style="fill:#5BA1C9;" points="248.454,351.328 240.225,323.017 255.762,312.35 			"/>
			<polygon style="fill:#5BA1C9;" points="114.015,293.607 110.625,329.059 114.015,377.558 123.574,357.757 			"/>
			<polygon style="opacity:0.5;fill:#6EB8E3;" points="123.574,357.757 126.567,394.478 114.015,377.558 			"/>
			<polygon style="opacity:0.5;fill:#6EB8E3;" points="217.138,376.557 185.309,344.954 179.835,407.767 			"/>
			<polygon style="opacity:0.5;fill:#6EB8E3;" points="197.994,246.544 194.826,259.807 200.111,274.809 			"/>
			<polygon style="fill:#6EB8E3;" points="90.279,310.319 55.184,254.497 70.613,299.357 			"/>
			<polygon style="fill:#5BA1C9;" points="144.433,347.584 164.747,293.607 192.019,285.652 			"/>
			<polygon style="opacity:0.5;fill:#6EB8E3;" points="164.747,293.607 170.909,254.497 192.019,285.652 			"/>
			<polygon style="fill:#5BA1C9;" points="64.353,252.637 93.161,298.441 64.353,240.499 			"/>
		</g>
		<g style="opacity:0.6;">
			<linearGradient id="SVGID_1_" gradientUnits="userSpaceOnUse" x1="250" y1="210.1067" x2="250" y2="500">
				<stop  offset="0" style="stop-color:#6EB8E3"/>
				<stop  offset="0.5073" style="stop-color:#0071BC"/>
			</linearGradient>
			<rect y="210.107" style="fill:url(#SVGID_1_);" width="500" height="289.893"/>
		</g>
		<g>
			<ellipse style="opacity:0.2;fill:#F2F2F2;" cx="365.051" cy="222.78" rx="53.383" ry="2.926"/>
			<ellipse style="opacity:0.2;fill:#F2F2F2;" cx="394.952" cy="232.696" rx="35.628" ry="2.926"/>
			<path style="opacity:0.2;fill:#F2F2F2;" d="M374.714,239.686c0,1.134-11.197,2.054-25.008,2.054s-25.008-0.92-25.008-2.054
				c0-1.134,11.197-2.054,25.008-2.054S374.714,238.551,374.714,239.686z"/>
			<ellipse style="opacity:0.2;fill:#F2F2F2;" cx="369.944" cy="248.788" rx="25.008" ry="2.054"/>
			<ellipse style="opacity:0.2;fill:#F2F2F2;" cx="365.638" cy="257.773" rx="8.716" ry="1.488"/>
			<ellipse style="opacity:0.2;fill:#F2F2F2;" cx="373.667" cy="265.661" rx="8.716" ry="1.488"/>
			<ellipse style="opacity:0.2;fill:#F2F2F2;" cx="370.166" cy="276.117" rx="4.188" ry="1.488"/>
			<ellipse style="opacity:0.2;fill:#F2F2F2;" cx="371.053" cy="286.806" rx="4.188" ry="1.488"/>
		</g>
	</g>
</g>
</svg>
