<?xml version="1.0" encoding="UTF-8"?>
<!DOCTYPE svg PUBLIC "-//W3C//DTD SVG 1.1//EN" "http://www.w3.org/Graphics/SVG/1.1/DTD/svg11.dtd">
<!-- Creator: CorelDRAW -->
<svg xmlns="http://www.w3.org/2000/svg" xml:space="preserve" width="131.737mm" height="103.621mm" version="1.1" style="shape-rendering:geometricPrecision; text-rendering:geometricPrecision; image-rendering:optimizeQuality; fill-rule:evenodd; clip-rule:evenodd"
viewBox="0 0 13174 10362"
 xmlns:xlink="http://www.w3.org/1999/xlink">
 <defs>
  <style type="text/css">
   <![CDATA[
    .fil11 {fill:black;fill-rule:nonzero}
    .fil7 {fill:#FFE95A;fill-rule:nonzero}
    .fil8 {fill:#FFCC00;fill-rule:nonzero}
    .fil4 {fill:#FFB050;fill-rule:nonzero}
    .fil6 {fill:#FF9FE3;fill-rule:nonzero}
    .fil1 {fill:#FF005A;fill-rule:nonzero}
    .fil5 {fill:#F8B18A;fill-rule:nonzero}
    .fil3 {fill:#B3FFFF;fill-rule:nonzero}
    .fil0 {fill:#88E3FF;fill-rule:nonzero}
    .fil2 {fill:#00E9FF;fill-rule:nonzero}
    .fil12 {fill:black;fill-rule:nonzero}
    .fil9 {fill:black;fill-rule:nonzero}
    .fil10 {fill:black;fill-rule:nonzero}
   ]]>
  </style>
 </defs>
 <g id="Layer_x0020_1">
  <metadata id="CorelCorpID_0Corel-Layer"/>
  <g id="vc103667.ai">
   <g>
    <path class="fil0" d="M6878 5382c-35,12 -922,113 -953,-421 -30,-535 259,-721 557,-742 295,-24 1280,86 1583,309 299,223 843,229 943,508 96,281 -463,422 -532,236 -68,-187 -419,-171 -615,-146 -195,23 -111,-192 -297,-245 -183,-52 -434,-75 -488,179 -56,255 -111,289 -198,322z"/>
    <path class="fil1" d="M8108 5176c-89,21 -290,201 -198,353 91,153 256,292 393,164 140,-126 267,-365 44,-473 -221,-109 -239,-44 -239,-44z"/>
    <path class="fil1" d="M7155 5020c-23,25 -112,258 -28,395 84,138 412,174 496,-11 83,-184 109,-412 -127,-474 -237,-62 -321,64 -341,90z"/>
    <path class="fil1" d="M8520 5415c-199,109 -188,243 -100,435 87,193 417,214 504,29 84,-186 109,-392 -125,-456 -236,-63 -279,-8 -279,-8z"/>
    <path class="fil0" d="M8021 5914c0,0 -1471,-504 -1791,-291 -317,212 -290,1127 145,1087 437,-42 1064,235 1278,-75 216,-311 551,-658 368,-721z"/>
    <path class="fil2" d="M9705 3738c110,-416 355,-1116 1691,-1339 1339,-226 1572,944 1537,1722 -40,777 51,3002 -351,3959 -395,955 -2189,1633 -2633,1337 -448,-295 -145,-1466 -268,-2086 -120,-619 252,-1001 996,-1192 747,-191 966,-444 846,-955 -117,-510 -714,-962 -1150,-514 -432,448 -840,-294 -668,-932z"/>
    <path class="fil3" d="M5153 696c-435,-18 -2658,133 -2836,2435 -160,2297 191,5772 1870,6298 1659,533 1128,-2721 1146,-3817 20,-1096 422,-3433 386,-4116 -38,-682 -566,-800 -566,-800z"/>
    <path class="fil0" d="M8954 3290c-38,-19 -1077,-552 -1276,-357 -195,198 582,403 697,587 111,186 132,576 12,769 -119,191 440,433 587,319 148,-113 387,-536 371,-779 -15,-243 -236,-462 -391,-539z"/>
    <path class="fil0" d="M6398 2483c-270,-1 -597,-7 -620,539 -21,544 112,991 292,863 181,-129 -107,-693 361,-814 470,-121 772,-209 620,-392 -150,-183 -453,-194 -653,-196z"/>
    <path class="fil2" d="M6362 7905c-178,40 -236,226 -201,764 36,539 295,886 953,962 656,74 1807,208 1987,62 183,-148 453,-1095 -20,-1292 -478,-194 -2325,-581 -2719,-496z"/>
    <path class="fil3" d="M6083 580c190,-193 891,43 1728,315 830,273 1773,665 1646,1192 -125,527 -1334,521 -2002,323 -676,-197 -1034,-237 -1339,-618 -305,-382 -290,-954 -33,-1212z"/>
    <path class="fil4" d="M10174 5926c-62,-100 -49,-692 204,-831 249,-141 438,469 418,615 -21,144 -301,733 -622,216z"/>
    <path class="fil5" d="M6464 3351c68,-63 142,-204 612,-153 470,51 907,318 973,449 69,129 -61,311 -363,267 -302,-43 -1052,-82 -1171,-259 -120,-176 -51,-304 -51,-304z"/>
    <path class="fil6" d="M7213 3022c-40,-47 -51,-263 163,-254 213,8 160,288 69,317 -89,30 -183,-4 -232,-63z"/>
    <path class="fil7" d="M7963 7638c18,-90 267,-215 287,-504 23,-288 282,-145 277,133 -5,277 -51,608 -119,623 -71,15 -506,30 -445,-252z"/>
    <path class="fil8" d="M6520 7248c-89,-223 -8,-315 366,-121 371,193 902,56 1016,-164 114,-220 221,331 -226,576 -442,242 -1078,-93 -1156,-291z"/>
    <path class="fil9" d="M6650 108c-44,-12 -185,-64 -352,-85 -52,-7 -107,-11 -162,-9 -65,2 -131,10 -194,29 -200,62 -368,232 -385,627 -26,640 -137,2623 -20,5196 50,1172 96,2518 266,3570 33,197 23,507 666,590 643,83 2218,234 2620,88 406,-147 152,-295 -79,-252 -234,41 -1319,-4 -1735,-32 -417,-26 -974,-71 -1124,-220 -150,-147 -289,-2468 -289,-2727 2,-259 -82,-2358 -56,-2793 23,-435 5,-2418 48,-2797 43,-378 -86,-1201 729,-936 323,106 300,-32 303,-55 18,-115 -64,-149 -236,-194z"/>
    <path class="fil10" d="M7147 551c79,30 1937,479 2155,713 214,235 89,670 48,918 -38,248 112,205 204,99 89,-108 167,-756 58,-1051 -109,-293 -572,-445 -988,-589 -417,-144 -1312,-368 -1444,-374 -134,-7 -246,197 -33,284z"/>
    <path class="fil11" d="M9746 2563c137,-65 1418,-587 2276,-766 428,-88 867,-63 1039,301 39,83 66,205 82,357 17,155 25,341 25,549 0,218 -7,459 -18,712 -15,335 -36,690 -55,1039 -115,2041 -112,3484 -218,3842 -105,358 -443,534 -1322,836 -873,300 -1533,619 -2085,598 -393,-198 201,-257 284,-258 369,-66 1845,-578 2091,-710 250,-133 828,-232 846,-892 17,-659 124,-3334 145,-3750 20,-416 184,-2096 -154,-2298 -341,-200 -762,-13 -1517,200 -754,214 -943,346 -1222,452 -279,105 -475,-82 -197,-212z"/>
    <path class="fil11" d="M9741 4383c0,0 1433,-593 2791,-773 83,-11 252,125 -50,218 -110,34 -480,85 -752,159 -774,215 -1667,474 -2010,638 -408,4 21,-242 21,-242z"/>
    <path class="fil11" d="M9732 6145c0,0 1415,-602 2753,-763 83,-9 304,34 21,166 -104,49 -527,114 -793,187 -771,212 -1705,533 -2044,701 -403,-5 63,-291 63,-291z"/>
    <path class="fil11" d="M9720 7984c0,0 1123,-469 2569,-706 88,-16 430,-45 193,153 -93,78 -238,38 -528,117 -839,225 -1845,477 -2217,657 -438,-8 -17,-221 -17,-221z"/>
    <path class="fil11" d="M5981 7c-20,-4 -66,-7 -135,-7 -73,0 -171,4 -291,13 -329,26 -819,98 -1385,265 -499,149 -1088,349 -1556,751 -1346,1173 -396,9001 796,8979 0,0 127,-143 -92,-351 -221,-207 -541,-1058 -640,-1583 -99,-523 -292,-1622 -320,-2038 -26,-414 -135,-1302 -104,-1935 30,-633 40,-1786 274,-2341 236,-555 498,-732 958,-925 206,-86 701,-293 1115,-382 516,-111 1067,-180 1220,-166 272,23 312,-250 160,-280z"/>
    <path class="fil11" d="M5519 9699c-252,-119 -1111,-288 -2028,28 -142,48 -231,260 18,251 152,-6 543,-144 993,-173 287,-18 590,47 894,93 82,0 306,-113 123,-199z"/>
    <path class="fil11" d="M9081 2892c-71,-40 -729,-290 -1393,-497 -607,-187 -1217,-333 -1394,-322 -293,27 -270,175 2,232 92,20 557,120 940,229 727,205 1543,543 1726,602 284,89 221,-186 119,-244z"/>
    <path class="fil11" d="M8962 4492c-74,-35 -737,-298 -1401,-469 -604,-154 -1191,-258 -1364,-237 -287,43 -246,177 20,220 92,15 572,56 956,137 798,170 1519,460 1705,509 282,75 183,-109 84,-160z"/>
    <path class="fil11" d="M8913 5993c-71,-34 -769,-258 -1425,-422 -597,-148 -1184,-258 -1357,-235 -279,46 -209,188 56,228 89,14 437,83 818,135 722,100 1642,425 1824,472 280,72 183,-128 84,-178z"/>
    <path class="fil11" d="M8946 8030c-76,-13 -614,-149 -1260,-279 -589,-119 -1278,-228 -1443,-197 -272,60 -231,202 28,230 89,8 569,30 940,95 704,122 1529,328 1710,365 277,56 239,-177 25,-214z"/>
    <path class="fil11" d="M9302 2675c-33,192 -97,1627 -117,3029 -23,1402 0,3785 84,3985 84,198 208,-24 193,-94 -4,-156 -38,-798 -56,-1612 -17,-781 -3,-1766 0,-2110 5,-418 54,-1359 84,-2143 21,-532 71,-990 55,-1074 -38,-209 -215,-150 -243,19z"/>
    <path class="fil2" d="M231 9324c0,0 -115,-415 79,-483 193,-67 254,69 251,207 0,136 8,365 -68,366 -79,3 -250,35 -262,-90z"/>
    <path class="fil12" d="M406 8927c23,-13 221,10 267,129 43,120 20,342 -66,423 -89,80 -343,18 -353,-56 -11,-73 10,-169 134,-112 123,56 173,-72 148,-138 -25,-67 -173,-11 -201,-111 -28,-99 18,-108 71,-135z"/>
    <path class="fil12" d="M277 9088c0,0 25,-64 10,-109 -13,-45 -171,-112 -203,-71 -34,38 -72,74 -6,128 64,55 191,75 199,52z"/>
    <path class="fil12" d="M234 9337c0,0 22,-62 9,-109 -12,-45 -170,-111 -203,-71 -19,23 -39,44 -40,69 -1,18 9,37 35,60 64,54 191,75 199,51z"/>
    <path class="fil11" d="M6741 737c-31,-41 -234,-138 -363,-52 -130,87 -184,929 -64,1016 119,88 338,36 335,-39 -2,-73 -99,-34 -114,-81 -8,-19 -10,-178 -5,-307 5,-198 43,-421 81,-442 64,-36 71,43 125,-7 53,-48 5,-88 5,-88z"/>
    <path class="fil11" d="M7793 8142c76,92 165,1031 48,1496 -18,66 -236,165 -168,2 33,-77 72,-849 -43,-1443 -30,-160 97,-141 163,-55z"/>
    <path class="fil11" d="M6217 7966c107,-6 867,46 1222,179 97,48 11,128 -20,108 -114,-59 -963,-192 -1184,-159 -107,0 -79,-132 -18,-128z"/>
    <path class="fil11" d="M7963 8247c0,0 643,46 648,151 5,105 -137,33 -247,10 -111,-22 -360,-47 -396,-68 -35,-20 -58,-92 -5,-93z"/>
    <path class="fil11" d="M8674 8387c41,-4 222,26 316,84 94,58 30,102 -56,80 -84,-22 -257,-44 -275,-76 -20,-32 -15,-84 15,-88z"/>
    <path class="fil11" d="M10079 4961c0,0 14,49 -112,135 -126,85 -184,781 -44,839 143,58 190,-12 148,-124 -41,-112 -21,-522 47,-561 72,-40 170,-246 124,-299 -47,-53 -171,-15 -163,10z"/>
    <path class="fil11" d="M10566 4957c0,0 -2,62 122,151 123,89 177,468 118,568 -58,100 -213,139 -168,-3 45,-142 -35,-395 -106,-436 -70,-42 -185,-230 -138,-281 47,-53 182,-22 172,1z"/>
    <path class="fil11" d="M10173 4901c24,3 283,45 323,-45 39,-89 -18,-145 -49,-126 -30,21 -222,17 -264,12 -41,-5 -52,154 -10,159z"/>
    <path class="fil11" d="M6329 7170c0,19 15,257 221,367 206,111 206,-100 97,-164 -110,-62 -112,-246 -193,-322 -82,-77 -143,-81 -125,119z"/>
    <path class="fil11" d="M8009 6648c0,0 51,490 -318,794 -366,303 150,247 221,183 71,-63 219,-260 272,-432 53,-171 74,-369 43,-475 -30,-106 -236,-263 -218,-70z"/>
    <path class="fil11" d="M8395 7803c94,-251 142,-540 28,-775 -241,-489 -325,-109 -211,107 71,135 46,394 -41,635l224 33z"/>
    <path class="fil11" d="M6169 3680c-20,-44 -81,-237 86,-504 168,-267 1190,-291 1990,277 104,76 219,420 -89,827 -51,68 -333,44 -73,-317 258,-360 -509,-626 -847,-678 -338,-52 -665,-25 -785,58 -122,82 -104,260 -81,344 20,85 -170,69 -201,-7z"/>
    <path class="fil11" d="M7155 3001c-43,-34 -23,-238 188,-205 208,33 130,256 48,249 -84,-5 -28,26 -22,-83 2,-107 -115,-67 -127,-15 -16,53 -26,105 -87,54z"/>
    <path class="fil11" d="M6474 3476c-18,-94 673,-37 1083,92 403,131 526,230 490,283 -33,52 -216,-73 -338,-115 -122,-41 -506,-162 -737,-174 -234,-12 -483,-13 -498,-86z"/>
    <path class="fil11" d="M2952 659c-56,30 -325,203 -457,330 -130,127 -160,41 -94,-59 66,-101 371,-299 470,-347 99,-49 269,-26 81,76z"/>
    <path class="fil11" d="M2520 2977c-55,100 -119,514 -89,753 28,238 153,296 115,-10 -38,-306 50,-548 78,-680 23,-28 -10,-223 -104,-63z"/>
    <path class="fil11" d="M5519 9461c-199,-84 -628,-122 -638,-63 -11,58 15,74 180,86 165,13 257,-3 422,69 165,72 79,-72 36,-92z"/>
    <path class="fil11" d="M11652 9493c-92,55 -487,194 -611,228 -120,36 -46,108 85,61 130,-47 570,-194 621,-250 54,-56 52,-125 -95,-39z"/>
    <path class="fil11" d="M10769 5056c17,13 145,260 121,394 -21,135 78,67 86,-12 5,-77 -53,-326 -127,-378 -75,-54 -80,-4 -80,-4z"/>
    <path class="fil11" d="M8438 3471c0,0 97,172 36,392 -56,222 66,124 86,0 18,-125 36,-354 -81,-456 -117,-103 -69,17 -41,64z"/>
    <path class="fil11" d="M8083 404c0,0 315,96 399,120 83,24 60,-58 32,-71 -28,-11 -404,-151 -457,-141 -51,10 -56,67 26,92z"/>
    <path class="fil11" d="M10155 2321c28,-10 447,-139 550,-196 103,-57 40,-65 -54,-59 -90,7 -529,168 -535,191 -7,22 -5,84 39,64z"/>
    <path class="fil11" d="M12786 2802c18,28 53,270 35,354 -18,83 -91,6 -85,-23 7,-28 -30,-273 -38,-294 -6,-20 69,-64 88,-37z"/>
    <path class="fil11" d="M12473 8001c0,0 82,371 -260,671 0,0 -19,67 67,52 86,-16 216,-246 248,-361 31,-116 75,-293 43,-339 -33,-48 -110,-81 -98,-23z"/>
    <path class="fil11" d="M13085 5740c-5,82 -60,496 -10,548 46,50 65,-35 67,-83 1,-34 24,-225 31,-357 3,-54 -2,-119 -2,-119 -19,-69 -78,-80 -86,11z"/>
    <path class="fil11" d="M1616 7627c-71,-43 -209,-15 -282,39 -71,55 -100,-28 15,-73 112,-45 196,-50 264,-29 66,19 107,125 3,63z"/>
    <path class="fil11" d="M5427 5253c0,0 13,221 28,417 15,197 -84,194 -97,-3 -12,-195 -27,-450 -27,-450 0,0 83,-163 96,36z"/>
    <path class="fil11" d="M6174 5678c18,1 290,79 295,14 8,-63 -59,-37 -117,-55 -56,-18 -145,-21 -180,-10 -33,11 -59,46 2,51z"/>
    <path class="fil11" d="M1672 9019c-100,189 -270,306 -420,351 -152,46 -302,57 -452,21 -38,-10 -117,-88 -20,-198 124,-12 381,53 599,-149 51,-47 82,-84 125,-124l168 99z"/>
    <path class="fil11" d="M1626 8767c122,-182 195,-289 218,-474 13,-107 -78,-257 -172,-313 -115,-67 -232,-57 -290,29 -79,118 -193,421 213,768 404,347 986,221 1040,216 53,-4 122,185 84,204 -39,19 -260,77 -526,54 -254,-23 -549,-107 -859,-432 -346,-447 -247,-830 -66,-1024 211,-181 548,-116 714,191 139,267 40,619 -181,867 -46,50 -175,-86 -175,-86z"/>
    <path class="fil11" d="M2111 8943c51,18 221,55 374,10 28,-33 12,-77 -74,-59 -87,18 -241,9 -277,-10 -36,-20 -79,39 -23,59z"/>
    <path class="fil11" d="M1537 9259c0,0 -61,115 -246,150 0,0 -41,33 7,48 48,15 231,-55 259,-135 26,-80 -20,-63 -20,-63z"/>
    <path class="fil0" d="M8540 7751c56,85 503,111 561,-170 59,-281 84,-1436 -409,-1344 -488,93 -269,514 -231,693 36,179 122,326 109,477 -15,150 -79,265 -30,344z"/>
    <path class="fil11" d="M6464 6717c-46,-66 -204,66 -175,169 28,105 119,67 172,-11 54,-80 61,-74 3,-158z"/>
    <path class="fil11" d="M6690 7002c137,67 910,289 1194,-166 290,-456 -99,-472 -178,-166 -124,209 -675,243 -975,107 -303,-135 -226,135 -41,225z"/>
    <path class="fil11" d="M8021 6309c36,-40 298,-197 430,109 61,133 -99,259 -137,129 -39,-131 -125,-131 -201,-30 -74,99 -224,-67 -92,-208z"/>
    <path class="fil11" d="M8880 5903c0,0 237,-567 -203,-605 -437,-38 -371,442 -318,464 56,22 163,26 140,-120 -23,-144 155,-181 231,-95 74,87 67,141 21,232 -46,91 101,180 129,124z"/>
    <path class="fil11" d="M8367 5177c-130,-214 -429,-182 -539,112 -109,291 267,491 404,410 140,-83 28,-200 -71,-156 -328,-24 -150,-464 84,-264 234,201 145,-62 122,-102z"/>
    <path class="fil11" d="M7546 5619c201,-118 285,-409 3,-602 -285,-193 -483,214 -432,383 51,168 185,67 160,-50 71,-370 407,-93 201,146 -206,240 30,146 68,123z"/>
    <path class="fil11" d="M7500 4978c16,12 59,32 95,-41 35,-74 -16,-98 -44,-87 -28,12 -25,73 -53,98 -25,27 2,30 2,30z"/>
    <path class="fil11" d="M8598 5236c3,53 8,153 49,147 43,-4 55,-115 27,-177 -27,-62 -81,-50 -76,30z"/>
    <path class="fil11" d="M8648 10237c16,0 193,-21 234,6 41,28 58,86 -18,101 -76,15 -200,28 -231,8 -28,-21 -8,-115 15,-115z"/>
    <path class="fil11" d="M6413 10073c17,2 251,18 297,62 46,42 58,121 -41,123 -99,2 -264,-12 -297,-44 -33,-33 10,-147 41,-141z"/>
    <path class="fil11" d="M3425 10071c20,-3 244,-52 302,-23 59,29 92,100 -2,129 -94,31 -252,62 -295,40 -41,-22 -36,-143 -5,-146z"/>
    <path class="fil11" d="M2005 5952c10,68 27,281 35,396 8,112 -61,100 -92,-13 -32,-114 -53,-379 -20,-419 33,-38 59,-75 77,36z"/>
    <path class="fil11" d="M9282 1785c-5,157 -46,418 -99,351 -54,-69 10,-241 20,-340 10,-99 84,-184 79,-11z"/>
   </g>
  </g>
 </g>
</svg>
