<svg class="svg-icon" style="width: 1em; height: 1em;vertical-align: middle;fill: currentColor;overflow: hidden;" viewBox="0 0 1024 1024" version="1.1" xmlns="http://www.w3.org/2000/svg"><path d="M811 676.2H213c-6.6 0-12-5.4-12-12V348.5c0-26.5 21.5-48 48-48h526c26.5 0 48 21.5 48 48v315.7c0 6.6-5.4 12-12 12z" fill="#28B1D5" /><path d="M811 676.2H213c-6.6 0-12-5.4-12-12V359h622v305.2c0 6.6-5.4 12-12 12z" fill="#198EBC" /><path d="M811 686.2H213c-12.1 0-22-9.9-22-22V348.5c0-32 26-58 58-58h526c32 0 58 26 58 58v315.7c0 12.1-9.9 22-22 22zM249 310.5c-21 0-38 17-38 38v315.7c0 1.1 0.9 2 2 2h598c1.1 0 2-0.9 2-2V348.5c0-21-17-38-38-38H249z" fill="#322E63" /><path d="M735.6 639.2H288.4c-6.6 0-12-5.4-12-12V163.5c0-26.5 21.5-48 48-48h286.7L747.6 252v375.2c0 6.6-5.4 12-12 12z" fill="#FFFFFF" /><path d="M288.4 359h447.1c6.6 0 12 2.9 12 6.4v248.1c0 14.2-21.5 25.7-48 25.7H412.9l-136.5-73V365.4c0-3.5 5.4-6.4 12-6.4z" fill="#B9D5EA" /><path d="M735.6 649.2H288.4c-12.1 0-22-9.9-22-22V163.5c0-32 26-58 58-58h286.7c2.7 0 5.2 1.1 7.1 2.9L754.6 245c1.9 1.9 2.9 4.4 2.9 7.1v375.2c0.1 12-9.8 21.9-21.9 21.9zM324.4 125.5c-21 0-38 17-38 38v463.7c0 1.1 0.9 2 2 2h447.1c1.1 0 2-0.9 2-2v-371L606.9 125.5H324.4z" fill="#322E63" /><path d="M747.6 252h-88.5c-26.4 0-48-21.6-48-48v-88.5L747.6 252z" fill="#FFB850" /><path d="M747.6 262h-88.5c-32 0-58-26-58-58v-88.5c0-4 2.4-7.7 6.2-9.2 3.7-1.5 8-0.7 10.9 2.2L754.6 245c2.9 2.9 3.7 7.2 2.2 10.9s-5.2 6.1-9.2 6.1zM621.1 139.7V204c0 21 17 38 38 38h64.3L621.1 139.7zM661.8 336.4H586c-5.5 0-10-4.5-10-10s4.5-10 10-10h75.8c5.5 0 10 4.5 10 10s-4.4 10-10 10zM528.6 336.4H352.8c-5.5 0-10-4.5-10-10s4.5-10 10-10h175.8c5.5 0 10 4.5 10 10s-4.5 10-10 10zM475.8 262h-123c-5.5 0-10-4.5-10-10s4.5-10 10-10h123c5.5 0 10 4.5 10 10s-4.5 10-10 10z" fill="#322E63" /><path d="M861.6 864.5H161.9c-39.6 0-72-32.4-72-72v-346c0-26.4 21.6-48 48-48h747.7c26.4 0 48 21.6 48 48v346c0 39.6-32.4 72-72 72z" fill="#FFFFFF" /><path d="M861.6 864.5H161.9c-39.6 0-72-32.4-72-72v-58.2h843.7v58.2c0 39.6-32.4 72-72 72z" fill="#B9D5EA" /><path d="M861.6 874.5H161.9c-45.2 0-82-36.8-82-82v-346c0-32 26-58 58-58h747.7c32 0 58 26 58 58v346c0 45.3-36.7 82-82 82z m-723.7-466c-21 0-38 17-38 38v346c0 34.2 27.8 62 62 62h699.7c34.2 0 62-27.8 62-62v-346c0-21-17-38-38-38H137.9z" fill="#322E63" /><path d="M811 864.5H212.6c-6.6 0-12-5.4-12-12V751.1c0-26.4 21.6-48 48-48H775c26.4 0 48 21.6 48 48v101.4c0 6.6-5.4 12-12 12z" fill="#322E63" /><path d="M811 874.5H212.6c-12.1 0-22-9.9-22-22V751.1c0-32 26-58 58-58H775c32 0 58 26 58 58v101.4c0 12.2-9.9 22-22 22zM248.6 713.1c-21 0-38 17-38 38v101.4c0 1.1 0.9 2 2 2H811c1.1 0 2-0.9 2-2V751.1c0-21-17-38-38-38H248.6z" fill="#322E63" /><path d="M811 775.4H212.6c-6.6 0-12-5.4-12-12v-12.3c0-26.4 21.6-48 48-48H775c26.4 0 48 21.6 48 48v12.3c0 6.6-5.4 12-12 12z" fill="#28B1D5" /><path d="M811 775.4H212.6c-6.6 0-12-5.4-12-12v-12.3c0-26.4 21.6-48 48-48H775c26.4 0 48 21.6 48 48v12.3c0 6.6-5.4 12-12 12z" fill="#198EBC" /><path d="M795.6 764.7H228c0-19.8 16.2-36 36-36h495.6c19.8 0 36 16.2 36 36z" fill="#28B1D5" /><path d="M811 785.4H212.6c-12.1 0-22-9.9-22-22v-12.3c0-32 26-58 58-58H775c32 0 58 26 58 58v12.3c0 12.1-9.9 22-22 22z m-562.4-72.3c-21 0-38 17-38 38v12.3c0 1.1 0.9 2 2 2H811c1.1 0 2-0.9 2-2v-12.3c0-21-17-38-38-38H248.6z" fill="#322E63" /><path d="M236.3 516.5m-29 0a29 29 0 1 0 58 0 29 29 0 1 0-58 0Z" fill="#76C49A" /><path d="M236.3 555.5c-21.5 0-39-17.5-39-39s17.5-39 39-39 39 17.5 39 39-17.5 39-39 39z m0-58c-10.5 0-19 8.5-19 19s8.5 19 19 19 19-8.5 19-19c0-10.4-8.5-19-19-19z" fill="#322E63" /><path d="M89.9 765.4h843.7v20H89.9zM532.8 526.5h-206c-5.5 0-10-4.5-10-10s4.5-10 10-10h206c5.5 0 10 4.5 10 10 0 5.6-4.4 10-10 10z" fill="#322E63" /><path d="M775.4 903.5H248.6c-6.6 0-9-6.2-5.4-13.7l28.1-57.8c2.8-5.8 9.7-10.5 15.4-10.5h450.6c5.6 0 12.5 4.7 15.4 10.5l28.1 57.8c3.5 7.5 1.2 13.7-5.4 13.7z" fill="#FFFFFF" /><path d="M767.5 854.5L752.7 830c-2.8-4.7-9.7-8.4-15.4-8.4H286.7c-5.6 0-12.5 3.7-15.4 8.4l-14.8 24.5h511z" fill="#B9D5EA" /><path d="M775.4 913.5H248.6c-6.1 0-11.4-2.8-14.4-7.6-3.5-5.6-3.5-13.1 0.1-20.4l28.1-57.8c4.5-9.3 14.8-16.1 24.4-16.1h450.6c9.6 0 19.8 6.8 24.4 16.1l28.1 57.8c3.6 7.4 3.6 14.8 0.1 20.4-3.3 4.9-8.5 7.6-14.6 7.6z m-522.8-20h518.8l-27.7-57.1c-1.4-2.8-5-4.9-6.4-4.9H286.7c-1.4 0-5 2-6.4 4.9l-27.7 57.1z" fill="#322E63" /></svg>