<?xml version="1.0" encoding="utf-8"?>
<!-- Generator: Adobe Illustrator 16.0.0, SVG Export Plug-In . SVG Version: 6.00 Build 0)  -->
<!DOCTYPE svg PUBLIC "-//W3C//DTD SVG 1.1//EN" "http://www.w3.org/Graphics/SVG/1.1/DTD/svg11.dtd">
<svg version="1.1" id="steeping_tea" xmlns="http://www.w3.org/2000/svg" xmlns:xlink="http://www.w3.org/1999/xlink" x="0px"
	 y="0px" width="313px" height="313px" viewBox="0 0 313 313" enable-background="new 0 0 313 313" xml:space="preserve">
<g id="tea_parts">
	<rect x="82.094" y="95.901" fill="#FFFFFF" width="149.813" height="143"/>
	<path fill="#014463" d="M129.762,61.85c-1.363,0-3.405-0.682-4.087-1.363c-6.128-5.447-9.532-11.575-9.532-19.066
		s3.404-13.62,9.532-19.066c2.724-2.727,7.491-2.045,9.533,0.678c2.727,2.727,2.045,7.492-0.679,9.537
		c-3.404,2.723-4.768,5.446-4.768,8.851s1.363,6.128,4.086,8.173c2.724,2.723,3.405,6.81,0.682,9.533
		C133.848,61.168,131.803,61.85,129.762,61.85"/>
	<path fill="#014463" d="M184.238,75.469c-2.041,0-4.083-0.682-5.446-2.723c-2.726-2.723-2.041-7.491,0.679-9.533
		c3.404-2.045,4.768-4.769,4.768-8.173s-1.363-6.128-4.083-8.173c-2.727-2.723-3.404-6.81-0.685-9.533
		c2.727-2.723,6.81-3.405,9.536-0.682c5.446,4.768,8.852,10.896,8.852,18.387c0,7.492-3.405,13.62-9.536,19.066
		C187.644,74.787,185.602,75.469,184.238,75.469"/>
	<path fill="#ECEFF9" d="M27.616,266.14h258.768c2.042,0,3.405-0.679,4.769-2.041c1.363-1.363,2.041-2.727,2.041-4.769
		c0-4.083-2.727-6.81-6.81-6.81H27.616c-2.042,0-3.405,0.679-4.768,2.042c-1.36,1.363-2.042,2.727-2.042,4.768
		C20.807,263.413,23.529,266.14,27.616,266.14"/>
	<path fill="#B6C1D1" d="M48.045,279.76l8.173,10.893c1.36,1.363,3.405,2.727,5.447,2.727h190.671c2.041,0,4.083-1.363,5.446-2.727
		l8.173-10.893H48.045z"/>
	<path fill="#EFBF7B" d="M150.19,151.054c0-2.042-1.363-4.087-2.723-5.446l-10.896-6.81l-10.896,6.81
		c-2.041,1.359-2.723,3.404-2.723,5.446v26.561c0,4.083,2.723,6.81,6.81,6.81h13.619c4.087,0,6.81-2.727,6.81-6.81V151.054z"/>
	<path fill="#014463" d="M184.238,14.182c3.758,0,6.811,3.042,6.811,6.81c0,3.761-3.053,6.81-6.811,6.81
		c-3.757,0-6.81-3.049-6.81-6.81C177.429,17.224,180.481,14.182,184.238,14.182"/>
	<path fill="#B6C1D1" d="M27.616,266.14h258.768c2.042,0,3.405-0.679,4.769-2.041c1.363-1.363,2.041-2.727,2.041-4.769H20.807
		C20.807,263.413,23.529,266.14,27.616,266.14"/>
	<path fill="#B6C1D1" d="M197.858,109.517v108.956c0,7.487-6.132,13.619-13.62,13.619h-74.906c-7.491,0-13.619-6.132-13.619-13.619
		V109.517c0-7.491-6.128-13.619-13.619-13.619v143.003h13.619h102.146h34.048V95.898h-20.429
		C203.989,95.898,197.858,102.026,197.858,109.517"/>
	<path fill="#014463" d="M157,75.469c-2.041,0-4.086-0.682-5.446-2.723c-2.727-2.723-2.045-7.491,0.679-9.533
		c3.404-2.045,4.768-4.769,4.768-8.173s-1.363-6.128-4.086-8.173c-6.128-5.446-9.533-11.575-9.533-19.066s3.405-13.619,9.533-19.065
		c2.723-2.727,7.491-2.045,9.532,0.678c2.727,2.727,2.042,7.491-0.678,9.536c-3.405,2.723-4.769,5.446-4.769,8.851
		c0,3.405,1.363,6.128,4.083,8.173c6.132,5.447,9.536,11.575,9.536,19.066c0,7.492-3.404,13.62-9.536,19.066
		C160.405,74.787,158.363,75.469,157,75.469"/>
	<path fill="#014463" d="M286.38,238.9h-40.85v-20.43h20.43c11.57,0,20.42-8.85,20.42-20.43v-61.28c0-11.58-8.85-20.43-20.42-20.43
		h-20.43v-27.24c0-4.09-2.73-6.81-6.811-6.81h-95.34c0-4.09-2.72-6.81-6.81-6.81s-6.811,2.72-6.811,6.81H75.28
		c-4.08,0-6.81,2.72-6.81,6.81V238.9H27.62c-5.45,0-10.899,2.04-14.3,6.13c-4.09,3.41-6.13,8.851-6.13,14.301
		c0,11.58,8.85,20.43,20.43,20.43h3.4l14.3,19.06c4.09,5.45,10.22,8.181,16.34,8.181h190.68c6.13,0,12.25-2.73,16.34-8.181
		l14.301-19.06h3.399c5.45,0,10.9-2.04,14.311-6.13c4.079-4.09,6.119-8.851,6.119-14.3C306.81,247.751,297.96,238.9,286.38,238.9z
		 M245.53,129.951h20.43c4.08,0,6.8,2.72,6.8,6.81v61.28c0,4.09-2.72,6.81-6.8,6.81h-20.43V129.951z M136.57,138.801l10.9,6.81
		c2.039,1.36,2.72,3.4,2.72,5.45v26.55c0,4.091-2.72,6.811-6.811,6.811h-13.62c-4.09,0-6.81-2.72-6.81-6.811v-26.55
		c0-2.05,1.36-4.09,2.72-5.45L136.57,138.801z M82.09,95.901h47.67v30.64l-11.579,7.49c-5.44,4.09-8.851,10.22-8.851,17.03v26.55
		c0,11.58,8.851,20.431,20.43,20.431h13.62c11.58,0,20.43-8.851,20.43-20.431v-26.55c0-6.81-3.399-13.62-8.85-17.03l-11.58-7.49
		v-30.64h88.53v143H82.09V95.901z M257.78,290.65c-1.351,1.36-3.4,2.73-5.44,2.73H61.66c-2.04,0-4.08-1.37-5.439-2.73l-8.181-10.89
		h217.92L257.78,290.65z M291.15,264.101c-1.36,1.36-2.721,2.04-4.771,2.04H27.62c-4.09,0-6.81-2.729-6.81-6.81
		c0-2.04,0.68-3.4,2.04-4.771c1.359-1.359,2.72-2.04,4.77-2.04h258.76c4.09,0,6.811,2.73,6.811,6.811
		C293.19,261.371,292.52,262.73,291.15,264.101z"/>
</g>
</svg>
