<svg height="77.12" viewBox="0 0 46.41 20.41" width="175.41" xmlns="http://www.w3.org/2000/svg"><g transform="translate(-64.54 -113.56)"><path d="M65.36 123.54c.66-12.23 12.89-11.12 15.8-3.1" fill="none" stroke="#d0125a" stroke-width="1.63" stroke-linecap="round" stroke-linejoin="round" stroke-dasharray="4.895872 4.895872" stroke-dashoffset="1.47"/><circle cx="83.83" cy="127.1" fill="none" r="4.65" stroke="#d0125a" stroke-width="1.88"/><g stroke-width=".26"><text x="72.94" y="124.04"/><text x="72.61" y="134.06"/><text x="74.09" y="125.28"/><text x="70.73" y="127.58"/></g><path d="M95.44 133.93c2.7 0 4.47-1.18 4.47-3.46 0-2.14-1.35-3.17-3.91-4.03-1.26-.49-2.3-.88-2.3-1.67 0-.7.65-1.1 1.67-1.1 1.26 0 2 .56 2.42 1l1.75-1.4a5.2 5.2 0 00-4.17-1.78c-2.3 0-4.14 1.16-4.14 3.28 0 1.9 1.28 2.97 3.8 3.81 1.32.51 2.46.93 2.46 1.89s-.88 1.28-2.1 1.28a3.93 3.93 0 01-2.72-1.21L90.95 132c.84 1.19 2.63 1.93 4.5 1.93zM106.48 133.93c2.7 0 4.47-1.18 4.47-3.46 0-2.14-1.35-3.17-3.9-4.03-1.26-.49-2.31-.88-2.31-1.67 0-.7.65-1.1 1.67-1.1 1.26 0 2 .56 2.42 1l1.75-1.4a5.2 5.2 0 00-4.17-1.78c-2.3 0-4.14 1.16-4.14 3.28 0 1.9 1.28 2.97 3.8 3.81 1.32.51 2.46.93 2.46 1.89s-.88 1.28-2.1 1.28a3.93 3.93 0 01-2.72-1.21L102 132c.84 1.19 2.63 1.93 4.5 1.93zM74.17 133.97c-.53 0-1.03-.12-1.53-.34s-.9-.57-1.22-1c-.3-.45-.53-.93-.66-1.45a7.02 7.02 0 01-.18-1.59v-5.67h-1.85v-2.12h1.85v-4.11h2.36v4.1h2.81v2.13h-2.8v5.67c0 .33.02.64.07.95s.18.6.38.88.46.42.77.42c.4 0 .93-.2 1.29-.8l1.86.92c-.2.4-.45.76-.77 1.08-.3.33-.67.56-1.1.7-.41.15-.84.23-1.28.23z" fill="#478dbe"/></g></svg>